<?xml version="1.0" encoding="UTF-8"?>
<svg width="36px" height="36px" viewBox="0 0 36 36" version="1.1" xmlns="http://www.w3.org/2000/svg" xmlns:xlink="http://www.w3.org/1999/xlink">
    <!-- Generator: Sketch 49.3 (51167) - http://www.bohemiancoding.com/sketch -->
    <title>Hot Deals</title>
    <desc>Created with Sketch.</desc>
    <defs></defs>
    <g id="Hot-Deals" stroke="none" stroke-width="1" fill="none" fill-rule="evenodd">
        <path d="M19,29.8924803 C23.1623485,29.0522557 29.5322065,23.3762753 24,16 C18,25 24,14 16,12 C16,13 17,26 12,17 C7.39622754,22.524527 12.9659211,28.8968427 17,29.8721043 L17,28.8335825 C16.1170476,28.5249599 15.5,27.8201276 15.5,27 C15.5,25.8954305 17.5,21 18,21 C18.5,21 20.5,25.8954305 20.5,27 C20.5,27.8201276 19.8829524,28.5249599 19,28.8335825 L19,29.8924803 Z M18,34 C10.2680135,34 4,27.7319865 4,20 C4,12.2680135 10.2680135,6 18,6 C25.7319865,6 32,12.2680135 32,20 C32,27.7319865 25.7319865,34 18,34 Z M16.5,5 C15.6715729,5 15,4.32842712 15,3.5 C15,2.67157288 15.6715729,2 16.5,2 C17.3284271,2 18,2.67157288 18,3.5 C18,4.32842712 17.3284271,5 16.5,5 Z M2.54338329,15.8502834 C0.978446079,14.3900206 1.77635684e-15,12.3092744 1.77635684e-15,10 C1.77635684e-15,5.581722 3.581722,2 8,2 C10.3092744,2 12.3900206,2.97844608 13.8502834,4.54338329 C8.3488884,6.01666671 4.01666671,10.3488884 2.54338329,15.8502834 Z M22.1497166,4.54338329 C23.6099794,2.97844608 25.6907256,2 28,2 C32.418278,2 36,5.581722 36,10 C36,12.3092744 35.0215539,14.3900206 33.4566167,15.8502834 C31.9833333,10.3488884 27.6511116,6.01666671 22.1497166,4.54338329 Z" fill="#77A3BA"></path>
    </g>
</svg>