<?xml version="1.0" encoding="UTF-8"?>
<svg width="36px" height="36px" viewBox="0 0 36 36" version="1.1" xmlns="http://www.w3.org/2000/svg" xmlns:xlink="http://www.w3.org/1999/xlink">
    <!-- Generator: Sketch 49.3 (51167) - http://www.bohemiancoding.com/sketch -->
    <title>Catalogue</title>
    <desc>Created with Sketch.</desc>
    <defs></defs>
    <g id="Catalogue" stroke="none" stroke-width="1" fill="none" fill-rule="evenodd">
        <path d="M-7.10542736e-15,30.9985808 C2.13093432e-14,29.9985808 2.13162821e-14,30 -7.10542736e-15,28.9985808 C9,25.9985808 16,30.9985808 18,30.9985808 C20,30.9985808 27,25.9985808 36,28.9985808 C36,29.9985808 36,29.9985808 36,30.9985808 C28,27.9985808 20,32.9985808 18,32.9985808 C16,32.9985808 8,27.9985808 -7.10542736e-15,30.9985808 Z M2.55795385e-14,26.6666667 C1.59872116e-14,25.6666667 2.55795385e-14,4.66666667 2.55795385e-14,3.66666667 C5.60164966,2.56830399 11.2032993,3.20715814 16.804949,5.58322911 C16.9231839,5.6333812 16.999975,5.74936782 16.999975,5.87779959 L17,28.1666913 C17,28.21213 16.9903234,28.2570476 16.971614,28.2984557 C16.8988426,28.4595151 16.7092852,28.5310867 16.5482298,28.4583062 C11.0321532,25.9659795 5.5160766,25.3687663 2.55795385e-14,26.6666667 Z M36,26.6666667 C30.4839234,25.3687663 24.9678468,25.9659795 19.4517702,28.4583062 C19.2907148,28.5310867 19.1011574,28.4595151 19.028386,28.2984557 C19.0096766,28.2570476 19,28.21213 19,28.1666913 L18.9999533,5.87049979 C18.9999533,5.74579361 19.0723897,5.6324438 19.1855599,5.58005922 C24.7903733,2.98568457 30.3951866,2.34788705 36,3.66666667 C36,4.66666667 36,25.6666667 36,26.6666667 Z" fill="#77A3BA"></path>
    </g>
</svg>