<?xml version="1.0" encoding="UTF-8"?>
<svg width="36px" height="36px" viewBox="0 0 36 36" version="1.1" xmlns="http://www.w3.org/2000/svg" xmlns:xlink="http://www.w3.org/1999/xlink">
    <!-- Generator: Sketch 49.3 (51167) - http://www.bohemiancoding.com/sketch -->
    <title>C&amp;C</title>
    <desc>Created with Sketch.</desc>
    <defs></defs>
    <g id="C&amp;C" stroke="none" stroke-width="1" fill="none" fill-rule="evenodd">
        <path d="M7,8 L7,6 C7,3.23857625 9.6862915,1 13,1 C16.3137085,1 19,3.23857625 19,6 L19,8 L21.8281586,8 L15.0002881,24.581971 C14.9681508,24.6600189 14.9681508,24.7476031 15.0002881,24.8256509 C15.0675785,24.9890703 15.2546057,25.0669983 15.4180251,24.999708 L24.9343723,21.081212 L25.9081788,34.7145035 C25.9102112,34.7429571 25.9112284,34.771474 25.9112284,34.8 C25.9112284,35.4627417 25.3739701,36 24.7112284,36 L1.28877162,36 C1.26024561,36 1.23172867,35.9989828 1.20327516,35.9969504 C0.542217681,35.949732 0.0446027847,35.375561 0.0918211757,34.7145035 L1.9203926,9.11450354 C1.96524735,8.48653706 2.48777664,8 3.11734304,8 L7,8 Z M9,8 L17,8 L17,6 C17,4.34314575 15.209139,3 13,3 C10.790861,3 9,4.34314575 9,6 L9,8 Z M34.2262742,4.22627417 L35.7737258,5.77372583 C35.8986936,5.8986936 35.8986936,6.1013064 35.7737258,6.22627417 L30,12 L34.4537547,14.6722528 C34.6053004,14.7631802 34.6544412,14.9597435 34.5635138,15.1112892 C34.528101,15.1703105 34.4746016,15.2163405 34.410956,15.2425475 L18.7101528,21.7075841 C18.5467334,21.7748745 18.3597062,21.6969465 18.2924159,21.5335271 C18.2602785,21.4554793 18.2602785,21.3678951 18.2924159,21.2898472 L24.7574525,5.58904402 C24.8247428,5.42562462 25.01177,5.34769663 25.1751894,5.41498697 C25.238835,5.44119399 25.2923344,5.48722404 25.3277472,5.54624532 L28,10 L33.7737258,4.22627417 C33.8986936,4.1013064 34.1013064,4.1013064 34.2262742,4.22627417 Z" id="Click&amp;Collect" fill="#77A3BA"></path>
    </g>
</svg>