<?xml version="1.0" encoding="UTF-8"?>
<svg width="36px" height="36px" viewBox="0 0 36 36" version="1.1" xmlns="http://www.w3.org/2000/svg" xmlns:xlink="http://www.w3.org/1999/xlink">
    <!-- Generator: Sketch 49.3 (51167) - http://www.bohemiancoding.com/sketch -->
    <title>Finance</title>
    <desc>Created with Sketch.</desc>
    <defs></defs>
    <g id="Finance" stroke="none" stroke-width="1" fill="none" fill-rule="evenodd">
        <path d="M18,36 C8.0588745,36 0,27.9411255 0,18 C0,8.0588745 8.0588745,0 18,0 C27.9411255,0 36,8.0588745 36,18 C36,27.9411255 27.9411255,36 18,36 Z M18,34 C26.836556,34 34,26.836556 34,18 C34,9.163444 26.836556,2 18,2 C9.163444,2 2,9.163444 2,18 C2,26.836556 9.163444,34 18,34 Z M18,30 C11.372583,30 6,24.627417 6,18 C6,11.372583 11.372583,6 18,6 C24.627417,6 30,11.372583 30,18 C30,24.627417 24.627417,30 18,30 Z M19.02,10.72 L19.02,9.28 L16.98,9.28 L16.98,10.76 C16.4199972,10.8533338 15.8766693,11.0166655 15.35,11.25 C14.8233307,11.4833345 14.360002,11.7899981 13.96,12.17 C13.559998,12.5500019 13.2400012,13.0099973 13,13.55 C12.7599988,14.0900027 12.64,14.7133298 12.64,15.42 C12.64,16.020003 12.739999,16.5399978 12.94,16.98 C13.140001,17.4200022 13.4099983,17.7966651 13.75,18.11 C14.0900017,18.4233349 14.4799978,18.6866656 14.92,18.9 C15.3600022,19.1133344 15.8199976,19.2999992 16.3,19.46 C16.7933358,19.6200008 17.2033317,19.7566661 17.53,19.87 C17.8566683,19.9833339 18.1133324,20.0866662 18.3,20.18 C18.4866676,20.2733338 18.6166663,20.3666662 18.69,20.46 C18.7633337,20.5533338 18.8,20.666666 18.8,20.8 C18.8,21.0400012 18.6900011,21.2066662 18.47,21.3 C18.2499989,21.3933338 18.006668,21.44 17.74,21.44 C17.4466652,21.44 17.1566681,21.4033337 16.87,21.33 C16.5833319,21.2566663 16.306668,21.1566673 16.04,21.03 C15.773332,20.9033327 15.5233345,20.7600008 15.29,20.6 C15.0566655,20.4399992 14.8600008,20.2733342 14.7,20.1 L11.8,23.18 C12.4266698,23.713336 13.1766623,24.1599982 14.05,24.52 C14.9233377,24.8800018 15.826662,25.093333 16.76,25.16 L16.76,26.66 L18.8,26.66 L18.8,25.14 C19.4266698,25.0866664 20.0299971,24.9466678 20.61,24.72 C21.1900029,24.4933322 21.6999978,24.1766687 22.14,23.77 C22.5800022,23.3633313 22.933332,22.8733362 23.2,22.3 C23.466668,21.7266638 23.6,21.0666704 23.6,20.32 C23.6,19.6133298 23.4466682,19.0166691 23.14,18.53 C22.8333318,18.0433309 22.4433357,17.6366683 21.97,17.31 C21.4966643,16.9833317 20.9800028,16.7166677 20.42,16.51 C19.8599972,16.3033323 19.3266692,16.1200008 18.82,15.96 C18.3266642,15.7999992 17.9700011,15.6700005 17.75,15.57 C17.5299989,15.4699995 17.42,15.3133344 17.42,15.1 C17.42,14.8733322 17.5266656,14.7133338 17.74,14.62 C17.9533344,14.5266662 18.2333316,14.48 18.58,14.48 C18.9533352,14.48 19.373331,14.579999 19.84,14.78 C20.306669,14.980001 20.6999984,15.2733314 21.02,15.66 L23.98,12.72 C23.2999966,12.119997 22.5233377,11.6500017 21.65,11.31 C20.7766623,10.9699983 19.9000044,10.7733336 19.02,10.72 Z" fill="#77A3BA"></path>
    </g>
</svg>